<svg version="1.1" viewBox="0 0 48 48" xmlns="http://www.w3.org/2000/svg" xmlns:xlink="http://www.w3.org/1999/xlink">
    <defs>
        <linearGradient id="linearGradient2792-0" x1="24" x2="24" y1="44" y2="-196.08383" gradientTransform="matrix(1.0000035 0 0 .97702588 .00439272 1.0952855)" gradientUnits="userSpaceOnUse">
            <stop stop-color="#3daee9" offset="0"/>
            <stop stop-color="#fdffff" offset="1"/>
        </linearGradient>
        <linearGradient id="linearGradient3853" x1="24" x2="24" y1="44" y2="3.8579724" gradientTransform="matrix(1.0000035 0 0 .97702588 -.0474649 .10737996)" gradientUnits="userSpaceOnUse">
            <stop stop-color="#f11919" offset="0"/>
            <stop stop-color="#fd7c7c" offset="1"/>
        </linearGradient>
        <linearGradient id="linearGradient33253" x1="19.208153" x2="46.720047" y1="21.238329" y2="48" gradientUnits="userSpaceOnUse">
            <stop offset="0"/>
            <stop stop-color="#fff" stop-opacity="0" offset="1"/>
        </linearGradient>
    </defs>
    <path d="m44.004545 24.543906a20.000069 19.540518 0 0 1-20.00007 19.540518 20.000069 19.540518 0 0 1-20.00007-19.540518 20.000069 19.540518 0 0 1 20.00007-19.540518 20.000069 19.540518 0 0 1 20.00007 19.540518" fill="url(#linearGradient2792-0)" stroke-opacity="0"/>
    <path d="m43.979393 24.54994a20.000069 19.540518 0 0 1-20.000069 19.540518 20.000069 19.540518 0 0 1-20.000069-19.540518 20.000069 19.540518 0 0 1 20.000069-19.540518 20.000069 19.540518 0 0 1 20.000069 19.540518" fill="#197cf1" stroke-opacity="0"/>
    <g shape-rendering="auto">
        <path d="m43.979393 24.54994c0 10.79193-8.954336 19.540518-20.000069 19.540518s-20.000069-8.748588-20.000069-19.540518c1e-7 -10.79193 8.954336-19.540518 20.000069-19.540518s20.000069 8.748588 20.000069 19.540518" color="#000000" color-rendering="auto" dominant-baseline="auto" fill="#af0000" image-rendering="auto" solid-color="#000000" stop-color="#000000" style="font-feature-settings:normal;font-variant-alternates:normal;font-variant-caps:normal;font-variant-east-asian:normal;font-variant-ligatures:normal;font-variant-numeric:normal;font-variant-position:normal;font-variation-settings:normal;inline-size:0;isolation:auto;mix-blend-mode:normal;shape-margin:0;shape-padding:0;text-decoration-color:#000000;text-decoration-line:none;text-decoration-style:solid;text-indent:0;text-orientation:mixed;text-transform:none;white-space:normal"/>
        <path d="m23.978516 4.515625c-11.306695-1e-7 -20.494141 8.969846-20.494141 20.035156s9.187446 20.033203 20.494141 20.033203c11.306694 0 20.49414-8.967893 20.49414-20.033203s-9.187446-20.035156-20.49414-20.035156zm0 0.9882812c10.784771 0 19.505859 8.5283248 19.505859 19.046875s-8.721088 19.044922-19.505859 19.044922c-10.784772 0-19.50586-8.526372-19.50586-19.044922 2e-7 -10.51855 8.7210878-19.046875 19.50586-19.046875z" color="#000000" color-rendering="auto" dominant-baseline="auto" fill-opacity="0" image-rendering="auto" solid-color="#000000" stop-color="#000000" style="font-feature-settings:normal;font-variant-alternates:normal;font-variant-caps:normal;font-variant-east-asian:normal;font-variant-ligatures:normal;font-variant-numeric:normal;font-variant-position:normal;font-variation-settings:normal;inline-size:0;isolation:auto;mix-blend-mode:normal;shape-margin:0;shape-padding:0;text-decoration-color:#000000;text-decoration-line:none;text-decoration-style:solid;text-indent:0;text-orientation:mixed;text-transform:none;white-space:normal"/>
        <path d="m43.952687 23.556001c-1e-6 10.79193-8.954336 19.540517-20.000069 19.540517-11.045733 1e-6 -20.000069-8.748587-20.00007-19.540517-1e-7 -10.791931 8.954336-19.540519 20.00007-19.540518 11.045733 0 20.000069 8.748588 20.000069 19.540518" color="#000000" color-rendering="auto" dominant-baseline="auto" fill="url(#linearGradient3853)" image-rendering="auto" solid-color="#000000" stop-color="#000000" style="font-feature-settings:normal;font-variant-alternates:normal;font-variant-caps:normal;font-variant-east-asian:normal;font-variant-ligatures:normal;font-variant-numeric:normal;font-variant-position:normal;font-variation-settings:normal;inline-size:0;isolation:auto;mix-blend-mode:normal;shape-margin:0;shape-padding:0;text-decoration-color:#000000;text-decoration-line:none;text-decoration-style:solid;text-indent:0;text-orientation:mixed;text-transform:none;white-space:normal"/>
        <path d="m23.953125 3.5214844c-11.306695-6e-7 -20.494141 8.9698456-20.494141 20.035157 6e-7 11.06531 9.187447 20.033203 20.494141 20.033203s20.49414-8.967894 20.494141-20.033203c0-11.065311-9.187447-20.035157-20.494141-20.035157zm0 0.9882812c10.784772 0 19.505859 8.5283254 19.505859 19.046875 0 10.518549-8.721088 19.044921-19.505859 19.044921-10.784772 1e-6 -19.505859-8.526371-19.505859-19.044921 0-10.518551 8.721087-19.046876 19.505859-19.046875z" color="#000000" color-rendering="auto" dominant-baseline="auto" fill-opacity="0" image-rendering="auto" solid-color="#000000" stop-color="#000000" style="font-feature-settings:normal;font-variant-alternates:normal;font-variant-caps:normal;font-variant-east-asian:normal;font-variant-ligatures:normal;font-variant-numeric:normal;font-variant-position:normal;font-variation-settings:normal;inline-size:0;isolation:auto;mix-blend-mode:normal;shape-margin:0;shape-padding:0;text-decoration-color:#000000;text-decoration-line:none;text-decoration-style:solid;text-indent:0;text-orientation:mixed;text-transform:none;white-space:normal"/>
    </g>
    <path d="m11.835938 15 0.060546 0.050781h-0.011718l0.058593 0.048828h-0.007812l0.060547 0.050782h-0.009766l0.058594 0.048828h-0.009766l0.060547 0.050781h-0.009765l0.058593 0.048828h-0.009765l0.060546 0.050781h-0.009765l0.060547 0.050782h-0.011719l0.058594 0.048828h-0.007813l0.060547 0.050781h-0.009765l0.058593 0.048828h-0.009765l0.060546 0.050781h-0.009765l0.058594 0.048829h-0.009766l0.060547 0.050781h-0.009766l0.060547 0.050781h-0.011719l0.058594 0.048828h-0.007812l0.060546 0.050781h-0.009765l0.058594 0.048829h-0.009766l0.060547 0.050781h-0.009766l0.058594 0.048828h-0.009766l0.060547 0.050781h-0.009765l0.060546 0.050781h-0.011718l0.058594 0.048829h-0.007813l0.060547 0.050781h-0.009766l0.058594 0.048828h-0.009766l0.060547 0.050781h-0.009765l0.060546 0.050781h-0.011718l0.058594 0.048829h-0.007813l0.060547 0.050781h-0.011719l0.058594 0.048828h-0.007813l0.060547 0.050781h-0.009765l0.058593 0.048828h-0.009765l0.060547 0.050782h-0.009766l0.060547 0.050781h-0.011719l0.058594 0.048828h-0.007813l0.060547 0.050781h-0.009765l0.058593 0.048828h-0.009765l0.060547 0.050782h-0.009766l0.058594 0.048828h-0.009766l0.060547 0.050781h-0.009766l0.060547 0.050781h-0.011719l0.058594 0.048828h-0.007812l0.060547 0.050782h-0.009766l0.058594 0.048828h-0.009766l0.060547 0.050781h-0.009766l0.058594 0.048828h-0.009766l0.060547 0.050781h-0.009765l0.060547 0.050782h-0.011719l0.058594 0.048828h-0.007813l0.060547 0.050781h-0.009766l0.058594 0.048828h-0.009766l0.060547 0.050781h-0.009765l0.058594 0.048828h-0.009766l0.060547 0.050782h-0.009766l0.060547 0.050781h-0.011719l0.058594 0.048828h-0.007813l0.060547 0.050781h-0.009765l0.058594 0.048828h-0.009766l0.060547 0.050782h-0.009766l0.058594 0.048828h-0.009766l0.060547 0.050781h-0.009766l0.060547 0.050781h-0.011718l0.058593 0.048828h-0.007812l0.060547 0.050782h-0.009766l0.058594 0.048828h-0.009766l0.060547 0.050781h-0.009766l0.060547 0.050781h-0.011718l0.058593 0.048828h-0.007812l0.060547 0.050782h-0.011719l0.058594 0.048828h-0.007813l0.060547 0.050781h-0.009766l0.058594 0.048828h-0.009765l0.060547 0.050781h-0.009766l0.060547 0.050782h-0.011719l0.058594 0.048828h-0.007813l0.060547 0.050781h-0.011719l0.058594 0.048828h-0.007812l0.060547 0.050781h-0.009766l0.058594 0.048828h-0.009766l0.060547 0.050782h-0.009766l0.060547 0.050781h-0.011719l0.058594 0.048828h-0.007812l0.060547 0.050781h-0.011719l0.058593 0.048828h-0.007812l0.060547 0.050782h-0.009766l0.058594 0.048828h-0.009766l0.060547 0.050781h-0.009765l0.060547 0.050781h-0.011719l0.058593 0.048828h-0.007812l0.060547 0.050782h-0.009766l0.058594 0.048828h-0.009766l0.060547 0.050781h-0.009765l0.058593 0.048828h-0.009765l0.060547 0.050781h-0.009766l0.060547 0.050782h-0.011719l0.058594 0.048828h-0.007813l0.060547 0.050781h-0.009765l0.058593 0.048828h-0.009765l0.060547 0.050781h-0.009766l0.058594 0.048829h-0.009766l0.060547 0.050781h-0.009766l0.060547 0.050781h-0.011718l0.058593 0.048828h-0.007812l0.060547 0.050781h-0.009766l0.058594 0.048829h-0.009766l0.060547 0.050781h-0.009766l0.058594 0.048828h-0.009765l0.060546 0.050781h-0.009765l0.060547 0.050781h-0.011719l0.058594 0.048829h-0.007813l0.060547 0.050781h-0.009766l0.058594 0.048828h-0.009765l0.060546 0.050781h-0.009765l0.058593 0.048828h-0.009765l0.060547 0.050782h-0.009766l0.060547 0.050781h-0.011719l0.058594 0.048828h-0.007812l0.060546 0.050781h-0.009765l0.058593 0.048828h-0.009765l0.060547 0.050782h-0.009766l0.060547 0.050781h-0.011719l0.058594 0.048828h-0.007812l0.060546 0.050781h-0.011718l0.058593 0.048828h-0.007812l0.060547 0.050782h-0.009766l0.058594 0.048828h-0.009766l0.060547 0.050781h-0.009765l0.060546 0.050781h-0.011718l0.058593 0.048828h-0.007812l0.060547 0.050782h-0.011719l0.058594 0.048828h-0.007813l0.060547 0.050781h-0.009765l0.058593 0.048828h-0.009765l0.060546 0.050781h-0.009765l0.060547 0.050782h-0.011719l0.058594 0.048828h-0.007813l0.060547 0.050781h-0.011719l0.058594 0.048828h-0.007812l0.060546 0.050781h-0.009765l0.058594 0.048829h-0.009766l0.060547 0.050781h-0.009766l0.060547 0.050781h-0.011719l0.058594 0.048828h-0.007812l0.060546 0.050781h-0.009765l0.058594 0.048829h-0.009766l0.060547 0.050781h-0.009766l0.058594 0.048828h-0.009766l0.060547 0.050781h-0.009765l0.060546 0.050781h-0.011718l0.058594 0.048829h-0.007813l0.060547 0.050781h-0.009766l0.058594 0.048828h-0.009766l0.060547 0.050781h-0.009765l0.058593 0.048828h-0.009765l0.060547 0.050782h-0.009766l0.060547 0.050781h-0.011719l0.058594 0.048828h-0.007813l0.060547 0.050781h-0.009765l0.058593 0.048828h-0.009765l0.060547 0.050782h-0.009766l0.060547 0.050781h-0.011719l0.058594 0.048828h-0.007813l0.060547 0.050781h-0.011719l0.058594 0.048828h-0.007812l0.060547 0.050782h-0.009766l0.058594 0.048828h-0.009766l0.060547 0.050781h-0.009766l0.058594 0.048828h-0.009766l0.060547 0.050781h-0.009765l0.060547 0.050782h-0.011719l0.058594 0.048828h-0.007813l0.060547 0.050781h-0.009766l0.058594 0.048828h-0.009766l0.060547 0.050781h-0.009765l0.060547 0.050782h-0.011719l0.058594 0.048828h-0.007813l0.060547 0.050781h-0.011719l0.058594 0.048828h-0.007813l0.060547 0.050781h-0.009765l0.058594 0.048828h-0.009766l0.060547 0.050782h-0.009766l0.060547 0.050781h-0.011719l0.058594 0.048828h-0.007813l0.060547 0.050781h-0.009765l-2.775391-2.347656-0.050781 0.085938-0.033203-0.025391 0.003906-0.005859-0.052734-0.042969 0.003906-0.00586-0.054688-0.044921 0.003907-0.00586-0.054688-0.044922 0.003906-0.005859-0.052734-0.042969 0.003906-0.005859-0.054687-0.044922 0.003906-0.005859-0.052734-0.042969 0.003906-0.00586-0.054688-0.044921 0.003907-0.00586-0.052735-0.042969 0.003907-0.005859-0.054688-0.044922 0.003906-0.005859-0.054687-0.044922 0.003906-0.005859-0.052734-0.042969 0.003906-0.00586-0.054688-0.044921 0.003907-0.00586-0.052735-0.042969 0.003907-0.005859-0.052735-0.044922 0.001953-0.005859-0.052734-0.044922 0.003906-0.003906-0.054687-0.044922 0.003906-0.00586-6.373047-5.392578v16.175781l0.050781-0.085937v0.119141 0.017578l0.048828-0.082032v0.09961 0.03125l0.050782-0.085938v0.087891 0.048828l0.048828-0.082031v0.066406 0.064453l0.050781-0.085937v0.05664 0.080078l0.048828-0.082031v0.035157 0.095703l0.050781-0.085938v0.023438 0.113281l0.050782-0.085938v0.00586 0.130859l0.048828-0.082031v0.130859l0.050781-0.085937v0.136718l0.048828-0.082031v0.13086l0.050781-0.085938v0.136719l0.048829-0.082031v0.130859l0.050781-0.085938v0.136719l0.050781-0.085937v0.136718l0.048828-0.082031v0.13086l0.050781-0.085938v0.083985l-0.189453 0.320312h0.080078l-0.023437 0.039062-0.005859 0.011719h0.078124l-0.015624 0.027344-0.013672 0.021484h0.080078l-0.009766 0.017579-0.019531 0.033203h0.078125l-0.001953 0.003906-0.027344 0.044922h0.080078l-0.029297 0.050781h0.078125l-0.029297 0.048828h0.082032l-0.03125 0.050781h0.080078l-0.029297 0.050782h0.078125l-0.029297 0.048828h0.080078l-0.029297 0.050781h0.078125l-0.029297 0.048828h0.080078l-0.029296 0.050781h0.078125l-0.029297 0.048829h0.080078l-0.029297 0.050781h0.080078l-0.029297 0.050781h0.078125l-0.029297 0.048828h0.080078l-0.029296 0.050781h0.078125l-0.029297 0.048829h0.080078l-0.029297 0.050781h0.080078l-0.029297 0.048828h0.078125l-0.029297 0.050781h0.080078l-0.029296 0.050781h0.078125l-0.029297 0.048829h0.080078l-0.029297 0.050781h0.078125l-0.029297 0.048828h0.080078l-0.029297 0.050781h0.080078l-0.029296 0.050781h0.078125l-0.029297 0.048829h0.080078l-0.029297 0.050781h0.078125l-0.029297 0.048828h0.080078l-0.029297 0.050781h0.078125l-0.029297 0.048828h0.080079l-0.029297 0.050782h0.080078l-0.029297 0.050781h0.078125l-0.029297 0.048828h0.080078l-0.029297 0.050781h0.078125l-0.029297 0.048828h0.080079l-0.029297 0.050782h0.078125l-0.029297 0.048828h0.080078l-0.029297 0.050781h0.080078l-0.029297 0.050781h0.078125l-0.029297 0.048828h0.080079l-0.029297 0.050782h0.078125l-0.029297 0.048828h0.080078l-0.029297 0.050781h0.078125l-0.029297 0.048828h0.080078l-0.029297 0.050781h0.080079l-0.029297 0.050782h0.078125l-0.029297 0.048828h0.080078l-0.029297 0.050781h0.078125l-0.029297 0.048828h0.080078l-0.029297 0.050781h0.078126l-0.029297 0.048828h0.080078l-0.029297 0.050782h0.080078l-0.029297 0.050781h0.078125l-0.029297 0.048828h0.080078l-0.029297 0.050781h0.078126l-0.029297 0.048828h0.080078l-0.029297 0.050782h0.078125l-0.029297 0.048828h0.080078l-0.029297 0.050781h0.080078l-0.029297 0.050781h0.078126l-0.029297 0.048828h0.080078l-0.029297 0.050782h0.078125l-0.029297 0.048828h0.080078l-0.029297 0.050781h0.078125l-0.029297 0.050781h0.080079l-0.029297 0.048828h0.080078l-0.029297 0.050782h0.078125l-0.029297 0.048828h0.080078l-0.029297 0.050781h0.078125l-0.029297 0.048828h0.080079l-0.029297 0.050781h0.080078l-0.029297 0.050782h0.078125l-0.029297 0.048828h0.080078l-0.029297 0.050781h0.078125l-0.029297 0.048828h0.080079l-0.029297 0.050781h0.078125l-0.029297 0.048828h0.080078l-0.029297 0.050782h0.080078l-0.029297 0.050781h0.078125l-0.029297 0.048828h0.080079l-0.029297 0.050781h0.078125l-0.029297 0.048828h0.080078l-0.029297 0.050782h0.078125l-0.029297 0.048828h0.080078l-0.029297 0.050781h0.080079l-0.029297 0.050781h0.078125l-0.029297 0.048828h0.080078l-0.029297 0.050782h0.078125l-0.029297 0.048828h0.080078l-0.029297 0.050781h0.078125l-0.029296 0.048828h0.080078l-0.029297 0.050781h0.080078l-0.029297 0.050782h0.078125l-0.029297 0.048828h0.080078l-0.029297 0.050781h0.078125l-0.029296 0.048828h0.080078l-0.029297 0.050781h0.078125l-0.029297 0.048829h0.080078l-0.029297 0.050781h0.080078l-0.029297 0.050781h0.078125l-0.029296 0.048828h0.080078l-0.029297 0.050781h0.078125l-0.029297 0.048829h0.080078l-0.029297 0.050781h0.078125l-0.029297 0.048828h0.080078l-0.029296 0.050781h0.080078l-0.029297 0.050781h0.078125l-0.029297 0.048829h0.080078l-0.029297 0.050781h0.078125l-0.029297 0.048828h0.080078l-0.029296 0.050781h0.080078l-0.029297 0.048828h0.078125l-0.029297 0.050782h0.080078l-0.029297 0.050781h0.078125l-0.029297 0.048828h0.080078l-0.029296 0.050781h0.078124l-0.029296 0.048828h0.080078l-0.029297 0.050782h0.078125l-0.029297 0.050781h0.080078l-0.029297 0.048828h0.080078l-0.029296 0.050781h0.078124l-0.029296 0.048828h0.080078l-0.029297 0.050782h0.078125l-0.029297 0.048828h0.080078l-0.029297 0.050781h0.080078l-0.029296 0.050781h0.078124l-0.029296 0.048828h0.080078l-0.029297 0.050782h0.078125l-0.029297 0.048828h0.080078l-0.029297 0.050781h0.078125l-0.029297 0.048828h0.080078l-0.029296 0.050781h0.080078l-0.029297 0.050782h0.078125l-0.029297 0.048828h0.080078l-0.029297 0.050781h0.078125l-0.029297 0.048828h0.080078l-0.029296 0.050781h0.078125l-0.029297 0.048829h0.080078l-0.029297 0.050781h0.080078l-0.029297 0.050781h0.078125l-0.029297 0.048828h0.080078l-0.029296 0.050781h0.078125l-0.029297 0.048829h0.080078l-0.029297 0.050781h0.078125l-0.029297 0.048828h0.080078l-0.029297 0.050781h0.080078l-0.029296 0.050781h0.078125l-0.029297 0.048829h0.080078l-0.029297 0.050781h0.078125l-0.029297 0.048828h0.080078l-0.029297 0.050781h0.078125l-0.029297 0.048828h0.080079l-0.029297 0.050782h0.080078l-0.029297 0.050781h0.078125l-0.029297 0.048828h0.080078l-0.029297 0.050781h0.078125l-0.029297 0.048828h0.080079l-0.029297 0.050782h0.078125l-0.029297 0.050781h0.080078l-0.029297 0.048828h0.080078l-0.029297 0.050781h0.078125l-0.029297 0.048828h0.080079l-0.029297 0.050782h0.078125l-0.029297 0.048828h0.080078l-0.029297 0.050781h0.080078l-0.029297 0.048828h0.078125l-0.029297 0.050781h0.080079l-0.029297 0.050782h0.078125l-0.029297 0.048828h0.080078l-0.029297 0.050781h0.078125l-0.029297 0.048828h0.080078l-0.029297 0.050781h0.080079l-0.029297 0.050782h0.078125l-0.029297 0.048828h0.080078l-0.029297 0.050781h0.078125l-0.029297 0.048828h0.080078l-0.029297 0.050781h0.078126l-0.029297 0.048828h0.080078l-0.029297 0.050782h0.080078l-0.029297 0.050781h0.078125l-0.029297 0.048828h0.080078l-0.029297 0.050781h0.078126l-0.029297 0.048828h0.080078l-0.029297 0.050782h0.078125l-0.029297 0.048828h0.080078l-0.029297 0.050781h0.080078l-0.029297 0.050781h0.078126l-0.029297 0.048828h0.080078l-0.029297 0.050782h0.078125l-0.029297 0.048828h0.080078l-0.029297 0.050781h0.078125l-0.029297 0.048828h0.080079l-0.029297 0.050781h0.080078l-0.029297 0.050782h0.078125l-0.029297 0.048828h0.080078l-0.029297 0.050781h0.078125l-0.029297 0.048828h0.080079l-0.029297 0.050781h0.078125l-0.029297 0.048828h0.080078l-0.029297 0.050782h0.080078l-0.029297 0.050781h0.078125l-0.029297 0.048828h0.080079l-0.029297 0.050781h0.078125l-0.029297 0.048828h0.080078l-0.029297 0.050782h0.078125l-0.029297 0.048828h0.080078l-0.029297 0.050781h0.080079l-0.029297 0.050781h0.078125l-0.029297 0.048828h0.080078l-0.029297 0.050782h0.078125l-0.029297 0.048828h0.080078l-0.029297 0.050781h0.078125l-0.029296 0.050781h0.080078l-0.029297 0.048828h0.080078l-0.029297 0.050782h0.078125l-0.029297 0.048828h0.080078l-0.029297 0.050781h0.078125l-0.029296 0.048828h0.080078l-0.029297 0.050781h0.080078l-0.007813 0.011719c0.399623 0.023261 0.80143 0.039063 1.207032 0.039063 11.045722 0 20-8.747144 20-19.539063 0-0.655254-0.033171-1.302719-0.097657-1.941406l-0.037109 0.03125v-0.089844l-0.050781 0.042969v-0.09375l-0.048828 0.041016v-0.089844l-0.050782 0.042969v-0.09375l-0.050781 0.042968v-0.09375l-0.048828 0.041016v-0.089844l-0.050781 0.042969v-0.09375l-0.048828 0.041016v-0.089844l-0.050782 0.042969v-0.09375l-0.048828 0.041015v-0.089844l-0.050781 0.042969v-0.09375l-0.050781 0.042969v-0.09375l-0.048828 0.041016v-0.089844l-0.050782 0.042969v-0.09375l-0.048828 0.041015v-0.089844l-0.050781 0.042969v-0.09375l-0.048828 0.041016v-0.089844l-0.050781 0.042969v-0.09375l-0.050782 0.042969v-0.09375l-0.048828 0.041015v-0.089844l-0.050781 0.042969v-0.09375l-0.048828 0.041016v-0.089844l-0.050781 0.042969v-0.09375l-0.050782 0.042969v-0.09375l-0.048828 0.041015v-0.089844l-0.050781 0.042969v-0.09375l-0.048828 0.041016v-0.089844l-0.050781 0.042969v-0.09375l-0.048829 0.041016v-0.089844l-0.050781 0.042968v-0.09375l-0.050781 0.042969v-0.09375l-0.048828 0.041016v-0.089844l-0.050781 0.042969v-0.09375l-0.048829 0.041016v-0.089844l-0.050781 0.042968v-0.09375l-0.048828 0.041016v-0.089844l-0.050781 0.042969v-0.09375l-0.050781 0.042969v-0.09375l-0.048829 0.041016v-0.089844l-0.050781 0.042968v-0.09375l-0.048828 0.041016v-0.089844l-0.050781 0.042969v-0.09375l-0.048828 0.041016v-0.089844l-0.050782 0.042969v-0.09375l-0.050781 0.042968v-0.09375l-0.048828 0.041016v-0.089844l-0.050781 0.042969v-0.09375l-0.048828 0.041016v-0.089844l-0.050782 0.042969v-0.09375l-0.048828 0.041015v-0.089843l-0.050781 0.042968v-0.09375l-0.050781 0.042969v-0.09375l-0.048828 0.041016v-0.089844l-0.050782 0.042969v-0.09375l-0.048828 0.041015v-0.089843l-0.050781 0.042968v-0.09375l-0.048828 0.041016v-0.089844l-0.050781 0.042969v-0.09375l-0.050782 0.042969v-0.09375l-0.048828 0.041015v-0.089843l-0.050781 0.042968v-0.09375l-0.048828 0.041016v-0.089844l-0.050781 0.042969v-0.09375l-0.048828 0.041016v-0.091797l-0.050782 0.042968v-0.091796l-0.050781 0.042968v-0.09375l-0.048828 0.041016v-0.089844l-0.050781 0.042969v-0.09375l-0.048828 0.041016v-0.089844l-0.050782 0.042969v-0.09375l-0.048828 0.041015v-0.091797l-0.050781 0.042969v-0.091797l-0.050781 0.042969v-0.09375l-0.048828 0.041016v-0.089844l-0.050782 0.042969v-0.09375l-0.048828 0.041015v-0.089843l-0.050781 0.042968v-0.09375l-0.050781 0.042969v-0.09375l-0.048828 0.041016v-0.089844l-0.050782 0.042969v-0.09375l-0.048828 0.041015v-0.089843l-0.050781 0.042968v-0.09375l-0.048828 0.041016v-0.089844l-0.050781 0.042969v-0.09375l-0.050782 0.042969v-0.09375l-0.048828 0.041015v-0.089843l-0.050781 0.042968v-0.09375l-0.048828 0.041016v-0.089844l-0.050781 0.042969v-0.09375l-0.048828 0.041015v-0.089843l-0.050782 0.042969v-0.09375l-0.050781 0.042968v-0.09375l-0.048828 0.041016v-0.089844l-0.050781 0.042969v-0.09375l-0.048828 0.041015v-0.089843l-0.050782 0.042969v-0.09375l-0.048828 0.041015v-0.089844l-0.050781 0.042969v-0.09375l-0.050781 0.042969v-0.09375l-0.048828 0.041015v-0.089843l-0.050782 0.042969v-0.09375l-0.048828 0.041015v-0.089844l-0.050781 0.042969v-0.09375l-0.048828 0.041016v-0.089844l-0.050781 0.042969v-0.09375l-0.050782 0.042969v-0.09375l-0.048828 0.041015v-0.089844l-0.050781 0.042969v-0.09375l-0.048828 0.041016v-0.089844l-0.050781 0.042969v-0.09375l-0.048829 0.041015v-0.089843l-0.050781 0.042968v-0.09375l-0.050781 0.042969v-0.09375l-0.048828 0.041016v-0.089844l-0.050781 0.042969v-0.09375l-0.048829 0.041015v-0.089843l-0.050781 0.042968v-0.09375l-0.050781 0.042969v-0.09375l-0.048828 0.041016v-0.089844l-0.050781 0.042969v-0.09375l-0.048829 0.041015v-0.089843l-0.050781 0.042968v-0.09375l-0.048828 0.041016v-0.089844l-0.050781 0.042969v-0.09375l-0.050781 0.042969v-0.09375l-0.048829 0.041015v-0.089843l-0.050781 0.042968v-0.09375l-0.048828 0.041016v-0.089844l-0.050781 0.042969v-0.09375l-0.048828 0.041016v-0.089844l-0.050782 0.042969v-0.09375l-0.050781 0.042968v-0.09375l-0.048828 0.041016v-0.009766-0.080078l-0.050781 0.042969v-0.029297-0.064453l-0.048828 0.041016v-0.041016-0.048828l-0.050782 0.042969v-0.060547-0.033203l-0.048828 0.041015v-0.074218-0.015626l-0.050781 0.042969v-0.09375l-0.109375 0.091797h-0.035156l0.058593-0.048828h-0.111328l0.060547-0.050781h-0.109375l0.060547-0.050781h-0.109375l0.058594-0.048829h-0.109375l0.060547-0.050781h-0.109375l0.058593-0.048828h-0.111328l0.060547-0.050781h-0.107422l0.058594-0.048828h-0.111328l0.060547-0.050782h-0.109375l0.060547-0.050781h-0.109375l0.058593-0.048828h-0.111328l0.060547-0.050781h-0.107422l0.058594-0.048828h-0.111328l0.060547-0.050782h-0.107422l0.058594-0.048828h-0.111328l0.060546-0.050781h-24.328124z" fill="url(#linearGradient33253)" opacity=".2" stroke-linecap="round"/>
    <path d="M 11.835582,15 24,25.292969 36.164419,15 Z M 11,15.707031 v 16.175781 l 6.373047,-10.783203 z m 26.000001,0 -6.373047,5.392578 6.373047,10.783203 z M 18.252487,21.84375 11.660157,33 H 36.339844 L 29.747514,21.84375 24,26.707031 Z" fill="#fff" stroke-linecap="round"/>
</svg>
